<svg xmlns="http://www.w3.org/2000/svg" width="256" height="256" viewBox="0 0 256 256"><title>ankylosaurus</title><path d="M114.8,171q.3-.2.1-.3l-.6-.3-.7-.3q-.4-.1-.4-.3a6.3,6.3,0,0,1,.4-2.3,12.5,12.5,0,0,1,1-2.1l1.4-2,1.5-2.1a19.1,19.1,0,0,0,1.2-2.2,8.3,8.3,0,0,0,.7-2.3l-.2-.4-.3-.6-2.3-3.5-2.3-3.3-2.2-3.4-2.2-3.6h-1.6l-1.3.2-2.3.4-2.7.7-2.6.8-1.9,1c-.5.3-.8.7-.8,1a78.6,78.6,0,0,0,.4,8.3q.4,4.1,1.1,8.2a4.8,4.8,0,0,1-.6,1.7l-1,1.7-1.2,1.7a8.6,8.6,0,0,0-.9,1.7l-2.2.5H85.4l-2.2-.5a7.9,7.9,0,0,1,2-1.9l2.5-1.7a11.4,11.4,0,0,0,2.1-1.9,3.8,3.8,0,0,0,.9-2.5,8.3,8.3,0,0,0-1-4,26.2,26.2,0,0,0-2.3-3.6l-2.7-3.5a14,14,0,0,1-2-3.6H78.4c-.1,0-.1.2-.2.5l-.4,1.4-.5,1.8-.7,1.9-.8,1.7a3,3,0,0,1-1,1.1l-5.5,2.6a57.1,57.1,0,0,1-5.5,2.1l-.4.2-.6.2H60.9l-1.2.2-1.2.2-.7.2a1.7,1.7,0,0,0-.9.7l-.7,1.3-.7,1.6a8.4,8.4,0,0,1-.9,1.6,4.4,4.4,0,0,1-1.3,1.2,3.6,3.6,0,0,1-1.9.5H49.3l-1-.3a.7.7,0,0,1-.4-.7v-.3l.2-.7.2-.7v-.4l.5-3.7a12.1,12.1,0,0,1,.8-2.9,5.5,5.5,0,0,1,1.1-1.7,4.3,4.3,0,0,1,1.4-.9l1.7-.6,1.9-.8a9.1,9.1,0,0,0,2-1.5l1.1-1,1.6-1.6,1.6-1.6,1-1.1v-.5a4.5,4.5,0,0,0-.8-2.6,7.4,7.4,0,0,0-2-2,12.8,12.8,0,0,0-2.8-1.4l-3.1-.9-3.1-.5-2.6-.2H45.7a8.1,8.1,0,0,0-2.1,1.1l-2.3,1.7-2.2,1.7-1.8,1.3-2.9,1.4-3,1.2-3,1.2a18.3,18.3,0,0,0-2.8,1.5,6,6,0,0,0-1.6,1.5l-1.2,1.7-1.3,1.7a6.1,6.1,0,0,1-1.7,1.4l-.3-.2-.2-.3V156a2,2,0,0,1,.1-.7l.3-.8.3-.8.2-.7h0a.8.8,0,0,1,0-.2h-.5l-.2.2-.3.3-.3.3-.2.3-.5-.3a.7.7,0,0,1-.1-.4v-.5a1.7,1.7,0,0,0,.1-.4h-.6l-3.7,3.7a6.5,6.5,0,0,1-2.1-1.8,7.8,7.8,0,0,1-1.1-2.2,10.4,10.4,0,0,1-.5-2.5q-.1-1.3-.1-2.7a38.6,38.6,0,0,1,.2-4.5,11.4,11.4,0,0,1,1.4-4.2,6.9,6.9,0,0,1,1.4-1.5l2.3-1.9,2.6-2.1,2.4-2a10.7,10.7,0,0,0,1.6-1.8q.6-.8.3-1.4l4.8-4.8a4.8,4.8,0,0,1,1.3-.9l1.2-.4,1.4-.2,1.8-.5a4.4,4.4,0,0,0,1.5-.9l1.1-1.2,1-1.3a6.7,6.7,0,0,1,1.2-1.2l3.2-2.7,3.4-2.8a21.2,21.2,0,0,0,2.8-3.2,9.8,9.8,0,0,0,1.6-3.9L50,96.7V95.1l1.1,3.7,1-.6a2.9,2.9,0,0,0-.1.9,4.8,4.8,0,0,0,.2,1.1,2.6,2.6,0,0,0,.4.9.9.9,0,0,0,.7.4l1.1-.4,2.3-1.1,3-1.6,3.4-1.9,3.4-1.9,3.1-1.7,2.3-1.3,1.2-.7.3-.6.4-.9.5-.8a.7.7,0,0,1,.5-.3l1.3.3a3.3,3.3,0,0,0,1.4.3,5.1,5.1,0,0,0,2-.4l2.1-1.1,1.9-1.4,1.6-1.3h.3l.4.3.7.7,1,.7a3.1,3.1,0,0,0,1.3.4h1.6a6,6,0,0,0,2.1-.4l2.1-.9,1.8-.9,1.2-.4a1.5,1.5,0,0,1,.9.5l1.2,1.1,1.6,1.1a3.8,3.8,0,0,0,1.9.5h3.6a4.7,4.7,0,0,0,1.8-.5l.4-.3.6-.7.7-.7.4-.4h1.1a1.2,1.2,0,0,1,1.1.4l.5.9a4,4,0,0,0,.5.9,1.2,1.2,0,0,0,1.1.4h6.8a4,4,0,0,1,1-1.3,2.3,2.3,0,0,1,1.3-.4h.8l.2.8.3,1.3.3,1.3.3.8a.8.8,0,0,0,.5.5h2.1l.8.4,1.3.7,1.3.7.8.3h.2a1.9,1.9,0,0,0,1-.3l.9-.6,1-.7,1.1-.5h.2a.8.8,0,0,1,.7.5,4,4,0,0,1,.4,1.1,6.7,6.7,0,0,1,.1,1.1c0,.3,0,.5.1.5l.8,1,1,.8,1,.8.9,1a2.5,2.5,0,0,0,1.6,1.1l2.4.5,2.5.4a4.8,4.8,0,0,1,1.9.6l2.1,2.1.3.4.5.7.5.7.3.3h2.1l.9.7,1.7,1.4,2.1,1.7,2.1,1.7,1.6,1.3.8.5h.3l2.1-.5h.3l1.5.2.8.5a2.4,2.4,0,0,1,.4.8l.3.9.5.9a3,3,0,0,0,.9.9l1.3.4,1.5.3,1.4.2,1.1.2.2.2.3.3.3.3.2.2h1.1l5.2,1.4,4.6,1.5,4.4,1.3,4.5,1.1,4.9.7a52.9,52.9,0,0,0,5.7.3H215a19,19,0,0,0,4.2-1.6,16,16,0,0,0,3.7-2.7,13.2,13.2,0,0,0,2.6-3.6,9.9,9.9,0,0,0,1-4.5v-.8L224,110a12.5,12.5,0,0,1-2.6-1.4,7.7,7.7,0,0,1-1.9-2.1,4.9,4.9,0,0,1-.8-2.7,4.9,4.9,0,0,1,.8-2.6,8,8,0,0,1,1.9-2.1,9.5,9.5,0,0,1,2.6-1.4,7.9,7.9,0,0,1,2.7-.5h.9l.8.2.8.2h1.4l.4-.2.5-.2h.6l.8.2a2.4,2.4,0,0,1,.6.9,2.1,2.1,0,0,1,.6-.9l1-.2a2.2,2.2,0,0,1,1.1.3l.9.7.8.9.8.8,2,.9,2.3,1.1a7.2,7.2,0,0,1,1.9,1.5,3.2,3.2,0,0,1,.8,2.2,8.7,8.7,0,0,1-.4,3,5.3,5.3,0,0,1-1.2,2,5.7,5.7,0,0,1-1.9,1.2l-2.3.7-2.6.3-2.7.2a3.4,3.4,0,0,0-1,1.2l-1.1,2-1,2-.6,1.1a45.8,45.8,0,0,1-4.6,6.1,28.6,28.6,0,0,1-4.9,4.3,24.2,24.2,0,0,1-5.3,2.8,33.8,33.8,0,0,1-6,1.6,55.9,55.9,0,0,1-6.9.7l-8,.2H195l-2.3-.3-2.8-.3-2.3-.3h-1l-23.3-5.8a17.1,17.1,0,0,0-3.3-.5h-5.6a5.1,5.1,0,0,0-2.1.6l-.8.5-1.3.9-1.6,1-1.6,1-1.3.9-.8.5-.6.3H144l-.2.2a2,2,0,0,0,0,.4v.5l3.3,1.6,3,1.9,2.7,2.2,2.6,2.7a4.1,4.1,0,0,1,.5,1.2,5.5,5.5,0,0,1,.1,1.1v.9a4.4,4.4,0,0,1-.3,1.5l-.6,1.5-.6,1.5a4.4,4.4,0,0,0-.3,1.5,5.4,5.4,0,0,0,.4,2.2,7.7,7.7,0,0,0,1.1,1.8l1.5,1.6,1.7,1.5v.2h0a.9.9,0,0,1-.5.8l-1.2.6-1.3.6a1.7,1.7,0,0,0-.8.9h-1.6a6.6,6.6,0,0,1-3.6-.8,5.2,5.2,0,0,1-1.9-2.1,8.8,8.8,0,0,1-.8-3q-.2-1.7-.2-3.4t-.2-3.3a7.9,7.9,0,0,0-.7-2.7,2,2,0,0,0-1-.9l-1.8-.6-2.2-.5-2.4-.5-2.3-.7a6.3,6.3,0,0,1-1.9-1l-6.3-5.2h-2.7l-.7.2a.6.6,0,0,0-.4.4,1.6,1.6,0,0,1,.8,1,9.6,9.6,0,0,1,.5,2q.2,1.2.3,2.5t.2,2.6v2.2a9,9,0,0,0,.2,1.4,14.4,14.4,0,0,0,.5,1.7l.5,1.6.4,1.6a8.2,8.2,0,0,1,.2,1.8,4.1,4.1,0,0,1-.2,1.3l-.5,1.2-.5,1.2a5.7,5.7,0,0,0-.4,1.2,8.2,8.2,0,0,0-.2,1.6q-.1,1-.2,2.1a10.3,10.3,0,0,1-.4,2,2,2,0,0,1-.8,1.2l-1.4.9-1.8,1-2,.9a5.6,5.6,0,0,1-1.9.4h-.8l-1-.2-1-.2Zm43.2-12.1c-.3,0-.5.2-.5.5s.2.5.5.5.4-.2.4-.5S158.3,158.9,158.1,158.9Z"/></svg>