<svg xmlns="http://www.w3.org/2000/svg" width="256" height="256" viewBox="0 0 256 256"><title>hadrosaur</title><path d="M181.9,201.2l-1.9.6-2,.4h-1.6l-1.9-.2a5.2,5.2,0,0,1-1.7-.8l-.5-.9-.7-1.3-.7-1.3-.5-.9-.2-.3-.3-.2.3.7.2.7v.5l-1.9-1.9q-.1,0-.2-.7l-.3-1.5-.3-1.7q-.1-.9-.2-1.4-.5-5.5-.7-11.2t-.3-11.3q0-3.6.3-7t.3-7v-.7q0-.6,0-1.2t0-1.2v-.8a10.1,10.1,0,0,1-.5-1.5,14.9,14.9,0,0,0-.7-1.9,7.2,7.2,0,0,0-1-1.7,1.7,1.7,0,0,0-1.4-.7,8.7,8.7,0,0,0-2.8.5l-2.7,1.1-2.7,1.3-2.7,1a62.4,62.4,0,0,0-2.2,8.3,46,46,0,0,0-.8,8.5v.5c0,.2,0,.4,0,.6s0,.4,0,.6v1l.3,1.4.3,1.4.2.8q.3,2.1.5,3.3a7.9,7.9,0,0,0,.6,2.2,5.5,5.5,0,0,0,1.2,1.7,17.6,17.6,0,0,0,2.5,1.9l.7.7,1,1.4,1.1,1.8,1,1.8.8,1.5.3.8v.2l-.2.3-.3.2a16.1,16.1,0,0,1-3.3.7l-3.4.2h-1.4l-1.2-.2h-1.8l-.7-.2-1.1-.4-1.1-.5-.5-.4-1.4-6.7h-.2a3.2,3.2,0,0,0-2.5,1.1,13.4,13.4,0,0,0-1.9,2.8l-1.8,3.6a17.5,17.5,0,0,1-2.4,3.6,11.7,11.7,0,0,1-3.5,2.8,10.9,10.9,0,0,1-5.2,1.1h-.6a.4.4,0,0,1-.3-.5,2.8,2.8,0,0,1,.3-1.3l.6-1.1.6-1.1a3.1,3.1,0,0,0,.4-1.3,2.2,2.2,0,0,1-1.4-.4,1.5,1.5,0,0,1-.6-1.3,1.5,1.5,0,0,1,.4-1l.8-.8,1-.7.7-.6.2-.4.3-.8.3-.8.2-.5a7.3,7.3,0,0,1,1-1.5l1.3-1.6,1.1-1.6a3,3,0,0,0,.5-1.6,2.1,2.1,0,0,0-.6-1l-1.5-1.6-2-1.9-2.1-1.9-1.9-1.7-1.2-1.2-4.3-4.8-1-1-1.5-1.5-1.4-1.4-.9-.9-1.5-1.3-1.2-.9-1.2-1-1.4-1.6a8.1,8.1,0,0,1-1.2-1.9,5.3,5.3,0,0,1-.3-1.9,6.4,6.4,0,0,1,.7-2.7,23.8,23.8,0,0,1,1.8-3.1l2.1-2.8,1.7-2a27.3,27.3,0,0,0-4.1-2.8l-4.7-2.4-4.7-2.1-4.3-1.8-.7-.3-.7-.2H90.9a25.6,25.6,0,0,0-9.3,1.6,18.5,18.5,0,0,0-7.6,5.6l-1.9,2.4-2.5,3.3-2.4,3.1-1.4,1.9a15.5,15.5,0,0,0-1.4,2.5l-1,2.2a9.6,9.6,0,0,1-1.3,1.9,7.2,7.2,0,0,1-2.1,1.6L52,164.7a7.6,7.6,0,0,0-1.1,1.4,14.7,14.7,0,0,0-1,1.9,13,13,0,0,0-.7,2.1,5,5,0,0,0-.1,1.8,10.5,10.5,0,0,0,1.1,3.6l1.8,3.2a32.2,32.2,0,0,1,1.7,3.2,8.5,8.5,0,0,1,.7,3.6,1.9,1.9,0,0,1-1,1.7,7.6,7.6,0,0,1-2.5.8l-3,.3H43.8l-1.4-1.4-.4-2.5-.3-2.1q-.2-1.1-.2-1.7t-.6-4.4a28,28,0,0,1-.4-4.5,11.4,11.4,0,0,1,.5-3.2,22.9,22.9,0,0,1,1.2-3.1l1.4-3q.7-1.5,1.3-2.9a16.6,16.6,0,0,0,.7-2.2l.6-2.2.6-2.2a11.6,11.6,0,0,1,.9-2.1,8.3,8.3,0,0,1,1.4-1.9l1.8-1.8a11.6,11.6,0,0,0,1.5-1.9,3.9,3.9,0,0,0,.6-2.1,17,17,0,0,0-.3-3,17,17,0,0,1,0-5.7l.5-2.7.5-2.7a16.5,16.5,0,0,0,.2-2.7,7.6,7.6,0,0,0-2.2.3l-2.1.8-2.1.9-2.2.7L39,130.6l-1.8.6-2.8.9-2.8.9-1.8.6H28.4a14.9,14.9,0,0,1,3-4.5,41.1,41.1,0,0,1,4.3-4l4.8-3.6a51.1,51.1,0,0,0,4.3-3.3q2.5-2.2,4.6-4.3t4-4.4q1.9-2.3,3.7-4.7t3.6-5.3A17.3,17.3,0,0,0,62,96.5q.6-1.4,1-2.9l.9-3A25.6,25.6,0,0,1,65,87.8a29.1,29.1,0,0,1,4.3-7,35.8,35.8,0,0,1,5.7-5.5A45.9,45.9,0,0,1,81.6,71q3.6-1.9,7.4-3.5l2.2-1.1,2.1-1.3,2.1-1.3,2.2-1.1a33.7,33.7,0,0,1,9.2-2.4,83.6,83.6,0,0,1,9.6-.6h13.9a13.6,13.6,0,0,1,3.7,1.4,21.6,21.6,0,0,1,3.2,2.2,32.7,32.7,0,0,1,2.9,2.7l2.7,2.8h.7l.9-.2.8-.4.8-.4.9-.2a2.1,2.1,0,0,1,1.4.4,7.2,7.2,0,0,1,1.2,1.5l1.2,1.9,1.9,2.9,1.9,2.9,1.3,1.9,2.3,3.2,2.9,3.9,3.1,4.2,2.9,3.8,2.2,2.9,1.1,1.3,1,1a5.9,5.9,0,0,0,1.7-2,25.8,25.8,0,0,0,1.6-3.2q.7-1.7,1.3-3.4t.7-2.5a29.4,29.4,0,0,0,.6-4l.2-3.7q.1-1.8.4-3.4a12.3,12.3,0,0,1,1-3.2,12.1,12.1,0,0,1,2-3,16.6,16.6,0,0,1,3.5-2.8V68l-.9-1.3-.8-1.1-.7-.9a7,7,0,0,0-1.6-1.4l-2-1.1-2.1-.7-2-.2h-13l-.6.2-.5.2h-.4l-.6.3-.9.4-.9.4-.6.3h-6.3l-.7-.2-.6-.6-.4-.8a2,2,0,0,1-.2-.7,4.2,4.2,0,0,1,.6-2.3,5.8,5.8,0,0,1,1.6-1.7,10.8,10.8,0,0,1,2.3-1.2l2.5-.8,2.5-.5,2-.3,1.9-.3,2.8-.3,2.7-.3h13.8l3.5.9,4.4,1.5,4.8,1.9,4.8,2.2,4.3,2.3a23.7,23.7,0,0,1,3.2,2.2l.8.8,1.3,1.4,1.3,1.4.8.8.5.4.8.6.9.6.7.4.5.3.9.5.9.5.5.2.9.9,1.5,1.5,1.5,1.5.9.9,5.3,3.8.8.9a1.9,1.9,0,0,1,.2,1,5.8,5.8,0,0,1-.5,2.1,10.7,10.7,0,0,1-1.2,2.2,7.4,7.4,0,0,1-1.7,1.8,3.3,3.3,0,0,1-2,.7.6.6,0,0,0,.1.6c.1.2.3.4.4.4h.3l.5-.2.5-.2h1a2.8,2.8,0,0,1-2.2,2.9H206.9l-2.7,2.6-2.7,3-2.5,3.1-2.2,2.9-.5,1.4-.8,2.2-1,2.6-1,2.6-.9,2.2-.6,1.4-.7,1.6-1,1.9-1.1,1.9-1.1,1.4-1.1,1.1-1.9,1.8-1.8,1.8-1,1.1-.7,1.4-1.2,2.4-1.2,2.5-.7,1.4-.3.5-.5.8-.5.7-.3.4q0,.6,0,.8a24,24,0,0,0,.3,3.6,24.1,24.1,0,0,1,.3,3.6v.7l-.2.9-.3,1.5-.3,1.5a6,6,0,0,0-.1.9l-.4,2.8-.6,4.3-.7,5-.7,5-.6,4.2-.4,2.8v.6c0,.3,0,.6,0,.9s0,.6,0,.9v.6a26.1,26.1,0,0,0,1.4,8.6A22.5,22.5,0,0,0,179,197l1.1.9,1.2.7,1.1.7a3.8,3.8,0,0,1,.9,1A3.5,3.5,0,0,1,181.9,201.2Zm-42.6-53.3H139a12,12,0,0,0-3.3.5l-3.3,1-3.4,1a12.8,12.8,0,0,1-3.5.5v.4l.2.5.3.5,1.3,2,1.7,2.6,1.5,2.3.8,1.2.7,1,1.2,1.4,1.2,1.4.8,1,1.3,1.3,1.6,1.6,1.3,1.3.6.6h.7q0-5.7-.5-11.1t-.7-11.1ZM180,200.3q0,.5.4.5t.4-.5c0-.3-.1-.5-.4-.5S180,200,180,200.3ZM221.9,90.7q0,.5.4.5c.3,0,.4-.2.4-.5s-.1-.5-.4-.5S221.9,90.3,221.9,90.7Z"/></svg>