<svg xmlns="http://www.w3.org/2000/svg" width="256" height="256" viewBox="0 0 256 256"><title>stegosaurus</title><path d="M119.6,183a4.8,4.8,0,0,1-1.4-1.3,7,7,0,0,1-.9-1.6,8.3,8.3,0,0,1-.5-1.8,12.5,12.5,0,0,1-.1-1.8,23.8,23.8,0,0,1,.4-4.6,40.2,40.2,0,0,1,1.1-4.4q.7-2.2,1.5-4.3l1.6-4.4v-5l-6.5-2a13.3,13.3,0,0,1-2.6,2.5l-3,1.8-3.2,1.5-3.3,1.6-.4.2-.4.3-.4.3-.2.2-2.8,5.6v.2a3.4,3.4,0,0,0,.4,1.5,10.1,10.1,0,0,0,1,1.6l1.2,1.4,1.2.9v.5l-4.2.4H88.9l-1.4-.4-.8-1.5-.6-1.2-.5-1a8.8,8.8,0,0,1-.6-1.7q-.2-.9-.3-1.8l-.2-1.8-.2-1.7h-.9l-6.7,3.6L69.9,168,63,171a61.1,61.1,0,0,1-7.2,2.3l-2.9.6-4.5,1-5.2,1.2L38,177.2l-4.4,1-2.9.6q-4.1.7-8.2,1t-8.2.4H12.8l-.6-.3a.7.7,0,0,1-.3-.6v-.5l1.5-.2,2.3-.4,2.3-.4,1.5-.3h1.9l-2.8-3.7v-.9l.5.2.4.3.8.7,1.3,1,1.3,1,.8.6h1.4l1.2-.4,1-.6a.6.6,0,0,0,.1-.8l-3.3-4.7v-1.3l4.2,3.7.6-.5.4-.6.4-.6.5-.6v3.8l.9.9.6-.3,1.3-.6,1.5-.7,1.3-.7a3.5,3.5,0,0,0,1.4-1.4,13.5,13.5,0,0,0,.9-2l.8-2.2a7.6,7.6,0,0,1,1-1.9l.4.2a1.2,1.2,0,0,1,.2.5,2.4,2.4,0,0,1,0,.5v.4a5,5,0,0,1-.3,1.7,5,5,0,0,0-.3,1.7v.2a1.5,1.5,0,0,0,.9-.7,4.3,4.3,0,0,0,.4-.9l.3-.9a1.2,1.2,0,0,1,.7-.7,6.8,6.8,0,0,0,2.9.2,6.2,6.2,0,0,0,2.2-.9,6.9,6.9,0,0,0,1.6-1.5l1.1-1.6.6-1.3.3-.5h3.7l5.6-5.6.3-.4.3-.5v-.2a5.5,5.5,0,0,0-.3-1.8,5.7,5.7,0,0,1-.3-1.8v-.3a4.5,4.5,0,0,1,.1-.8c.1-.3.2-.4.5-.4h4.6l.2-.8v-2.2l.2-1.4.2-1.4q.1-.6.1-.9l6.9-1.4q.2,0,.8-.7l1.2-1.4,1.1-1.4.6-.7-.6-.7-.6-.5-.5-.6a2.3,2.3,0,0,1-.2-1v-1q0-.4.1-1.3t.1-2l.2-2q.1-.9.2-1.3l.2-.4.3-.7q.2-.4.4-.4h4.4v-5.1l.7-.7H92.6l2.8-4a1.6,1.6,0,0,0-.9-.9l-1.3-.4-1.4-.5a2.1,2.1,0,0,1-1-1.1l-.2-.9-.2-.8v-1.1q-.1-1.8-.2-3.5a13.3,13.3,0,0,0-.7-3.4l-.6-1.4-.6-1.4-.5-1.4a5.2,5.2,0,0,1-.2-1.4,1.2,1.2,0,0,1,.2-.6q.2-.2.8-.2H99.6V87l.4-.3.6-.2h1.8a16.3,16.3,0,0,1,4.1.5l4.1,1.3,4,1.7,3.7,1.6q0-.2.1-.6v-1l.2-1,.2-.6.3-1,.6-1.8.7-2.1.7-2.1.6-1.7.3-1V74.5a5.5,5.5,0,0,1,.1-.9l.2-1.1q.1-.3.7-.3a2.2,2.2,0,0,1,1.1.4l1.2.9,1.1,1,.7.7.9.9,1.6,1.5,1.6,1.5,1,.8.9.6,1.6,1,1.6,1,.9.6.5.5h.2a1.8,1.8,0,0,0,1.2-.7l1.5-1.7,1.7-2.3,1.8-2.3a12,12,0,0,1,1.8-1.7,3.1,3.1,0,0,1,1.8-.7,2,2,0,0,1,1.7.9,8.9,8.9,0,0,1,1.1,2.2q.5,1.3.8,2.5a7.5,7.5,0,0,0,.8,1.9h.2a3.1,3.1,0,0,0,1.6-.4l1.5-1,1.5-1a3.3,3.3,0,0,1,1.7-.4h1a.5.5,0,0,1,.4.4l2.3,9.3v.2a3.5,3.5,0,0,1-.3,1.3l-.6,1.2.5.3.8.5.8.4.6.2h.5l1.3-1,2-1.6,2-1.6,1.3-1,.2-.2.4-.3.4-.3.3-.2.5-.3.4-.2.3.2.3.4.3.4v.3h3.5v13.1l.4.2.4.3.6.6,1,.9,1,.8.6.5a5.8,5.8,0,0,1,1.2-1.3l1.6-1.1,1.8-.7,1.8-.3h.6c.1,0,.2.2.3.5s.2.4.2.5l.9.3h.5l.3.2a4,4,0,0,1,.1,1.1q0,.9.1,2t.1,2.2a9.9,9.9,0,0,1-.2,2,3,3,0,0,1-.9,1.6l.9,1.1,1.2,1.2,1.4,1a2.5,2.5,0,0,0,1.3.4h.7l1-.3,1.6-.6,1.6-.6.9-.4h.2a1.6,1.6,0,0,1,1.1.3,2.3,2.3,0,0,1,.6.8,4.1,4.1,0,0,1,.3,1.1,6.3,6.3,0,0,1,.1,1.1,4.4,4.4,0,0,1-.3,1.5,4.5,4.5,0,0,0-.3,1.5.8.8,0,0,0,.3.5l.6.5.6.4.4.2.5.3.4.2.2-.2.2-.2,2.3-1.4.5-.3.4-.2h1.2v3.9l1.2.4.7.3.4.2h1a2.5,2.5,0,0,0,1.2-.3,2.5,2.5,0,0,1,1.2-.3.9.9,0,0,1,.7.4,2.9,2.9,0,0,1,.5.8l.3.9a3.5,3.5,0,0,1,.1.7l.7.3,1.1.5,1.1.4.7.2h.2l1.1-.3,1.1-.3a.6.6,0,0,1,.5.2l.3.6.3.6a1,1,0,0,0,.7.5l.9.3,1.5.4,1.8.5,1.8.5,1.5.4.8.3.9.4,1.9.9,2.1,1.1,1.6.8.6.4.9.7.8.7a1.3,1.3,0,0,1,.4.6,1,1,0,0,1-.2.9l-.8.6-1,.3h-.8l-3.9-.2-3.9-.4-3.9-.4-3.9-.2h-5.2l-6.5.5a56.1,56.1,0,0,0-7,1.2,39.4,39.4,0,0,0-6.7,2.2,18.5,18.5,0,0,0-5.5,3.6l-10.2,9.8v.9l.3,1.5.5,2.3.6,2.3a12.2,12.2,0,0,0,.4,1.5,2.6,2.6,0,0,1,1.1,1.3,4.6,4.6,0,0,1,.4,1.7v.7a32.8,32.8,0,0,1-5.4.5h-5.3a18.6,18.6,0,0,0-.4,2.2,20.3,20.3,0,0,0-.1,2.1,1.7,1.7,0,0,0,.2,1l.5.7.5.6a1.4,1.4,0,0,1,.2.8c0,.2-.2.4-.5.6l-1.4.4-1.8.2h-4.7l-1.5-.2-1.7-.5a4.3,4.3,0,0,1-1.4-.9,2,2,0,0,1-.6-1.4v-1.2l.3-.7.3-.7V170a29.7,29.7,0,0,0,.3-3.8q.1-2.1.2-4.3a37.3,37.3,0,0,1,.5-4.2,10.5,10.5,0,0,1,1.3-3.5h-1.4l-3.6.7-3.5.8-3.5.6-3.6.3-4.5-.3-4.5-.3H143l-.2,1.6q-.1.9-.3,1.7t-.4,1.7a6.4,6.4,0,0,1-.6,1.5,17.2,17.2,0,0,1-1.6,2.1l-2,2.2-2,2.3-1.8,2.4a13,13,0,0,0-1.3,2.4,6.5,6.5,0,0,0-.5,2.5,3.4,3.4,0,0,0,.6,2l1.3,1.6,1.3,1.5a3.2,3.2,0,0,1,.6,1.9l-8.1-.2Z"/></svg>