<svg xmlns="http://www.w3.org/2000/svg" width="256" height="256" viewBox="0 0 256 256"><title>triceratops</title><path d="M112.1,172.2l.2-.7.2-.7v-.5a3.4,3.4,0,0,0,0-.4,3,3,0,0,1,0-.3v-1.2l-3,.4h-7.3l-2.6-.4-2.4-.8a6.9,6.9,0,0,1-2-1.3,5.8,5.8,0,0,1-1.4-1.9,6.5,6.5,0,0,1-.5-2.7,9.9,9.9,0,0,1,.1-1.4l.2-1.3.2-1.3a9.4,9.4,0,0,0,.1-1.3,3.2,3.2,0,0,0-.5-1.9,1.7,1.7,0,0,0-1.5-.8q0,2.9-.2,5.5t-.2,5.5a9.5,9.5,0,0,0,.2,2.2l.5,2,.5,2a8.8,8.8,0,0,1,.2,2.1c0,.1,0,.2,0,.4s0,.3,0,.4,0,.3,0,.4v.2l-.2.3-.3.2H92l-.5-.2-.5-.2h-.5l-.3.2-.2.3-.2.3h-.4l-.6-.2-.5-.4-.5-.4-.5-.2a.7.7,0,0,0-.6.3l-.4.7-.4.7a.8.8,0,0,1-.7.3l-.8-.2-.6-.5-.6-.5-.8-.2a1,1,0,0,0-.7.2l-.5.5-.5.5-.8.2a1,1,0,0,1-.8-.3l-.4-.6-.4-.6a1.2,1.2,0,0,0-.6-.5l-1.6-.8-1.1-.9-.9-1.1L73,170.3q0-.4,0-1.5t0-2.3,0-2.3c0-.7,0-1.2,0-1.5a4.2,4.2,0,0,0-.3-1.1l-.6-1.3-.8-1.4-.9-1.2-.9-1-.7-.6-.4.2-.5.3-6,3.9L56,164.1l-5.8,3.1a48.6,48.6,0,0,1-6,2.4,45.2,45.2,0,0,1-6.4,1.6,41.2,41.2,0,0,1-7,.6h-3l-4.1-.3-4.5-.7a18.9,18.9,0,0,1-4.1-1.3,9.4,9.4,0,0,1-3-2.1,4.4,4.4,0,0,1-1.2-3.1v-1a9.9,9.9,0,0,1,2.2,1.1l2,1.3,2.1,1a6.7,6.7,0,0,0,2.5.4,12.7,12.7,0,0,0,3.7-.6,23.1,23.1,0,0,0,3.8-1.6,30.5,30.5,0,0,0,3.8-2.3,41.9,41.9,0,0,0,3.5-2.8,31.9,31.9,0,0,0,3-3,23.3,23.3,0,0,0,2.2-2.9l19.2-31,.9-1.7,1.3-2.6,1.5-3.1,1.6-3.1,1.3-2.7.9-1.7a16.7,16.7,0,0,1,1.8-2.8,13,13,0,0,1,1.9-1.9l2.3-1.6,2.9-1.7Q79,97.7,83,95.6A77.2,77.2,0,0,1,91.2,92a62.6,62.6,0,0,1,8.5-2.5,40.8,40.8,0,0,1,8.7-.9,69.3,69.3,0,0,1,13,1.2,78.5,78.5,0,0,1,12.6,3.5l2.7,1.1,3.2,1.4,3.4,1.2a11.2,11.2,0,0,0,3.2.5,2,2,0,0,0,1.3-.4,3.8,3.8,0,0,0,.9-1,8.2,8.2,0,0,0,.7-1.4l.6-1.5.6-1.4a2.9,2.9,0,0,1,.8-1h1.4a1.4,1.4,0,0,0,.6-.6l.2-.6v-.6a1,1,0,0,1,.5-.5h1.5l.5-.2.3-.4.2-.3.3-.6.3-.6.2-.3h2.4l1.3-.9,1.3-1.1,1.3-1,1.3-.8,2.1-.7,1.9-.5,1.9-.6,2.1-1h.5l1.4.5h.5l1.9-.9h.3l.8.2.8.2h.6l.5-.2.5-.2H182l.5.3.6.2h.9v.8l-1.5,4.5q-.8,2.1-1.4,4.3a41,41,0,0,0-1,4.3,28.2,28.2,0,0,0-.4,4.7q0,.5,0,1.6t.2,2.4.4,2.7a15.4,15.4,0,0,0,.6,2.5,6.3,6.3,0,0,0,1,1.9,1.8,1.8,0,0,0,1.4.7h1.1l13.7-1.1q6.9-.5,13.6-1.3t13.4-2.2a91.9,91.9,0,0,0,13.2-3.8v.5l-.3.4-.6.7-.8.8-.7.6-.5.4-.8.6-.9.6-.6.3h.9l10.3-2.8h.6a.9.9,0,0,1-.1.5l-.3.4-.4.3-.3.2a37.6,37.6,0,0,1-4.8,3,51.2,51.2,0,0,1-5.3,2.4l-5.5,1.8-5.4,1.3-26.3,4.7h-.4l-.9.3-1.2.4-1.3.4-1.2.4-.9.3-.5.3-.4.3v.2h0l.4.5.7.7.7.7.5.4.7.5,1.2.9,1.5,1,1.6,1.1,1.4,1,1,.7a7.6,7.6,0,0,0,2.9,1.2l3.1.2h4l1.6-.2,1.6-.2h1.6a.6.6,0,0,1,.6.3,1.2,1.2,0,0,1,.2.7,4.9,4.9,0,0,1-.5,2.1l-1,1.9-1,1.9a4.4,4.4,0,0,0-.5,2,14.5,14.5,0,0,0,.2,2.2l.4,2.2.4,2.2a14.8,14.8,0,0,1,.2,2.2,6.9,6.9,0,0,1-.3,1.6,22.7,22.7,0,0,1-.7,2.3,25.7,25.7,0,0,1-1.1,2.5,16.1,16.1,0,0,1-1.4,2.3,8.3,8.3,0,0,1-1.6,1.7,2.9,2.9,0,0,1-1.7.7h-.2l-.3-.2-.2-.3a5.4,5.4,0,0,0,.3-1.7,3.8,3.8,0,0,0-.6-2.2,3.3,3.3,0,0,0-2-1.3v.5l.2.5.2.5q0,.5-.6.8l-1.5.4-1.6.2h-1a9.6,9.6,0,0,1-3.6-.7l-3.3-1.6-3.2-1.8a12.8,12.8,0,0,0-3.5-1.2l-2.4-.3-2.5-.2-2.5-.3-2.4-.6-1.5-.9-1.6-1.3-1.6-1.1a3,3,0,0,0-1.5-.5h-.3l-.7.3-1.2.5-1.2.6-.7.4-.3.2-.2.3v.5l.2.9.3,1.5.3,1.5a6.5,6.5,0,0,1,.1.9v.4c0,.2,0,.4,0,.5a14.5,14.5,0,0,1-.3,2.9,14.6,14.6,0,0,0-.3,2.9v.6c0,.3,0,.5,0,.8s0,.4,0,.6v.2l.5,1.2.8,1.7.9,1.7.7,1.1v1a2,2,0,0,1-.1.6.4.4,0,0,1-.4.3l-.5-.2-.5-.3c0,.4,0,.7-.2.8l-.7.2h-.8l-.4-.2-.4-.2h-.3a2.4,2.4,0,0,0-1.3.4,3.8,3.8,0,0,0-1,1l-5.1-1.9-.3.6-.4.6-.5.5-.5.2h-.2l-1.8-.7-1.8-.8a5.7,5.7,0,0,1-1.5-1.1,2.2,2.2,0,0,1-.6-1.6,12.5,12.5,0,0,1,.3-2.5,12.5,12.5,0,0,0,.3-2.5,4.3,4.3,0,0,0-.4-1.7,10.1,10.1,0,0,0-1-1.8l-1.4-1.8-1.7-1.5-1.7-1.1a3.7,3.7,0,0,0-1.5-.4,7.8,7.8,0,0,0-2.5.4l-2.4,1.1-1.6.9-2,1.2-2.1,1.2-1.8,1.1-1.8,1.2-.5.5v.3c0,.2,0,.5,0,.7s0,.5,0,.8,0,.4,0,.6v1.7q0,.5,0,.9t.1.9a6.5,6.5,0,0,0,.2.9l.3,1.1a8.1,8.1,0,0,0,1,1.9l1.3,1.9a14.8,14.8,0,0,1,1.1,2,5.1,5.1,0,0,1,.5,2.1.8.8,0,0,1-.4.6l-.8.6-.8.5-.4.2h-.3l-.6-.3-.6-.3-.3-.2h-.3a.4.4,0,0,0-.4.3l-.2.7a2.2,2.2,0,0,1-.3.7.8.8,0,0,1-.7.3l-.9-.2-.8-.5-.8-.5-1-.2a.6.6,0,0,0-.5.2l-.3.5-.3.5a.7.7,0,0,1-.6.2l-1-.2-1.5-.6-1.7-.9-1.5-1.1a6.4,6.4,0,0,1-1.1-1.2,2.1,2.1,0,0,1-.4-1.2Zm123-70c0,.3.1.5.4.5s.4-.1.4-.5-.1-.5-.4-.5S235.1,101.9,235.1,102.2Z"/></svg>